mtllib container.mtl

#vertex coordinates
v  0.5 -0.5  0.5
v -0.5 -0.5  0.5
v -0.5 -0.5 -0.5
v  0.5 -0.5 -0.5
v  0.5  0.5  0.5
v -0.5  0.5  0.5
v -0.5  0.5 -0.5  
v  0.5  0.5 -0.5

#normal coordinates
vn  1.0 -1.0  1.0
vn -1.0 -1.0  1.0
vn -1.0 -1.0  -1.0
vn  1.0 -1.0  -1.0
vn  1.0  1.0  1.0
vn -1.0  1.0  1.0
vn -1.0  1.0 -1.0
vn  1.0  1.0 -1.0

#texture coordinates
vt 0.0 0.0
vt 1.0 0.0
vt 1.0 1.0 
vt 0.0 1.0 

g container
usemtl container

#faces
f 1/1/1 2/2/2 3/3/3
f 1/1/1 3/3/3 4/4/4
f 6/2/6 5/1/5 8/4/8
f 7/3/7 6/2/6 8/4/8
f 8/2/8 5/1/5 4/3/4
f 5/1/5 1/4/1 4/3/4
f 6/2/6 7/1/7 2/3/2
f 7/1/7 3/4/3 2/3/2
f 5/1/5 6/2/6 2/3/2
f 5/1/5 2/3/2 1/4/1
f 7/3/7 8/4/8 3/2/3
f 8/4/8 4/1/4 3/2/3